<svg version="1.2" xmlns="http://www.w3.org/2000/svg" viewBox="0 0 4096 4096" width="4096" height="4096">
	<style>
		.s0 { fill: #e9dcd8 } 
		.s1 { fill: #ebd7d2 } 
		.s2 { fill: none;stroke: #e0bcb5;stroke-miterlimit:100;stroke-width: 14 } 
	</style>
	<g id="Layer 1">
		<g id="Folder 1">
			<path id="Shape 1 copy 3" fill-rule="evenodd" class="s0" d="m2192.29 4105.22c-1052.76 0-1903.72-850.96-1903.72-1903.71 0-1052.75 850.96-1903.71 1903.72-1903.71 1052.75 0 1903.71 850.96 1903.71 1903.71 0 1052.75-850.96 1903.71-1903.71 1903.71z"/>
			<path id="Shape 1 copy 2" fill-rule="evenodd" class="s1" d="m2046.02 3807.43c-1052.75 0-1903.71-850.96-1903.71-1903.72 0-1052.75 850.96-1903.71 1903.71-1903.71 1052.76 0 1903.72 850.96 1903.72 1903.71 0 1052.76-850.96 1903.72-1903.72 1903.72z"/>
			<path id="Shape 1 copy" fill-rule="evenodd" class="s2" d="m2004.52 4040.66c-1108.5 0-2004.52-896.02-2004.52-2004.52 0-1108.5 896.02-2004.52 2004.52-2004.52 1108.49 0 2004.51 896.02 2004.51 2004.52 0 1108.5-896.02 2004.52-2004.51 2004.52z"/>
		</g>
	</g>
</svg>